HIERARCHY
ROOT joint_0
{
	OFFSET -212.520721 0.000000 434.227997
	CHANNELS 6 Xposition Yposition Zposition Zrotation Yrotation Xrotation 
	JOINT joint_1
	{
		OFFSET 2.474272 88.434311 -0.738785
		CHANNELS 3 Zrotation Yrotation Xrotation
		JOINT joint_2
		{
			OFFSET 0.103459 1.857837 10.548508
			CHANNELS 3 Zrotation Yrotation Xrotation
			JOINT joint_3
			{
				OFFSET 43.500008 -0.000038 0.000008
				CHANNELS 3 Zrotation Yrotation Xrotation
				JOINT joint_4
				{
					OFFSET 42.372196 0.000023 -0.000010
					CHANNELS 3 Zrotation Yrotation Xrotation
					JOINT joint_5
					{
						OFFSET 17.300007 0.000003 -0.000004
						CHANNELS 3 Zrotation Yrotation Xrotation
						End Site
						{
							OFFSET 0.000000 0.000000 0.000000
						}
					}
				}
			}
		}
		JOINT joint_6
		{
			OFFSET 0.103459 1.857834 -10.548512
			CHANNELS 3 Zrotation Yrotation Xrotation
			JOINT joint_7
			{
				OFFSET 43.500050 -0.000034 0.000002
				CHANNELS 3 Zrotation Yrotation Xrotation
				JOINT joint_8
				{
					OFFSET 42.372257 0.000015 0.000013
					CHANNELS 3 Zrotation Yrotation Xrotation
					JOINT joint_9
					{
						OFFSET 17.299990 -0.000006 0.000004
						CHANNELS 3 Zrotation Yrotation Xrotation
						End Site
						{
							OFFSET 0.000000 0.000000 0.000000
						}
					}
				}
			}
		}
		JOINT joint_10
		{
			OFFSET 6.901970 -2.603734 0.000004
			CHANNELS 3 Zrotation Yrotation Xrotation
			JOINT joint_11
			{
				OFFSET 12.588094 0.000009 0.000000
				CHANNELS 3 Zrotation Yrotation Xrotation
				JOINT joint_12
				{
					OFFSET 12.343201 -0.000005 -0.000001
					CHANNELS 3 Zrotation Yrotation Xrotation
					JOINT joint_13
					{
						OFFSET 25.832907 0.000011 0.000002
						CHANNELS 3 Zrotation Yrotation Xrotation
						JOINT joint_14
						{
							OFFSET 11.766597 0.000002 0.000004
							CHANNELS 3 Zrotation Yrotation Xrotation
							End Site
							{
								OFFSET 0.000000 0.000000 0.000000
							}
						}
					}
					JOINT joint_15
					{
						OFFSET 19.745907 -1.480370 6.000103
						CHANNELS 3 Zrotation Yrotation Xrotation
						JOINT joint_16
						{
							OFFSET 11.284124 -0.000017 -0.000018
							CHANNELS 3 Zrotation Yrotation Xrotation
							JOINT joint_17
							{
								OFFSET 33.000053 0.000005 0.000034
								CHANNELS 3 Zrotation Yrotation Xrotation
								JOINT joint_18
								{
									OFFSET 25.200001 0.000028 -0.000003
									CHANNELS 3 Zrotation Yrotation Xrotation
									End Site
									{
										OFFSET 0.000000 0.000000 0.000000
									}
								}
							}
						}
					}
					JOINT joint_19
					{
						OFFSET 19.746109 -1.480360 -6.000067
						CHANNELS 3 Zrotation Yrotation Xrotation
						JOINT joint_20
						{
							OFFSET 11.284139 0.000001 0.000006
							CHANNELS 3 Zrotation Yrotation Xrotation
							JOINT joint_21
							{
								OFFSET 33.000118 0.000020 0.000005
								CHANNELS 3 Zrotation Yrotation Xrotation
								JOINT joint_22
								{
									OFFSET 25.199759 0.000119 0.000422
									CHANNELS 3 Zrotation Yrotation Xrotation
									End Site
									{
										OFFSET 0.000000 0.000000 0.000000
									}
								}
							}
						}
					}
				}
			}
		}
	}
}
MOTION
Frames: 10
Frame Time: 0.016667
-165.368958 0.000000 313.215698 180.000000 33.475960 180.000000 92.068970 -11.143485 84.360497 -173.219208 1.325896 174.409012 -58.472393 3.247906 7.787982 59.015324 -5.104326 1.128326 21.454556 0.003093 0.000000 126.629311 -8.318192 -174.048737 -46.481148 -5.812048 1.849913 80.793030 0.171710 5.812613 21.454559 -0.003109 -0.000019 8.588143 0.288439 -2.137958 7.150458 0.708031 -4.254096 6.833289 0.682495 -4.258287 -25.825359 -8.197485 12.668692 -4.294201 7.099653 3.918164 -146.884003 -77.177025 -35.246391 -30.468653 49.636696 5.347888 -125.217636 -0.142791 3.824904 3.645831 -9.637324 37.905903 -173.268356 80.206734 8.331223 35.711090 -40.826157 -46.857594 -103.992500 0.256973 -2.990539 1.939205 13.799679 -19.959948 
-161.781204 0.000000 307.840088 180.000000 33.645531 180.000000 92.374260 -9.851754 83.859383 -176.126999 1.062575 173.223984 -66.209816 3.830992 4.686317 62.357082 -3.632191 -0.644224 21.454548 0.003093 -0.000000 128.630692 -8.282893 -173.619705 -52.020248 -6.316373 2.119817 82.195992 -1.155296 1.070535 21.454557 -0.003108 -0.000017 8.800066 0.200017 -1.839061 7.579037 0.519762 -3.661048 7.261636 0.497801 -3.664115 -25.296457 -8.864299 12.457053 -4.635667 7.100171 3.348506 -150.764389 -77.238152 -31.286417 -26.944628 51.030453 8.013100 -121.776772 -0.173280 3.688599 5.335519 -7.041169 36.554249 -169.840561 79.244141 11.811172 32.905563 -43.780163 -43.700748 -102.660210 0.389339 -2.940348 1.970104 14.109765 -19.791904 
-158.162994 0.000000 302.410461 180.000000 33.822521 180.000000 92.550247 -8.448621 83.581001 -179.799118 0.244328 171.737350 -74.180504 4.622565 1.170898 66.624870 -1.414707 -1.448061 21.454548 0.003090 -0.000002 131.206223 -8.022712 -172.184448 -58.805103 -6.887358 2.498936 88.032722 -2.296798 -4.031672 21.454557 -0.003112 -0.000017 9.023722 0.193779 -1.512426 8.028217 0.491820 -3.007761 7.710583 0.473791 -3.010662 -24.276169 -10.380077 12.415046 -5.463459 7.433928 2.337118 -154.145111 -76.822792 -27.846281 -23.678780 52.287857 10.079212 -117.553093 -0.289934 3.526726 6.730835 -5.462315 37.012928 -168.965668 78.604118 12.700643 29.381563 -46.712650 -39.797890 -101.186722 0.555759 -2.886363 1.925454 14.746955 -19.479584 
-154.522202 0.000000 296.933258 180.000000 33.984661 180.000000 91.996574 -7.022121 83.507782 175.568817 -1.744704 170.891891 -81.782211 5.194116 -1.513105 71.970612 0.431180 -1.727833 21.454548 0.003091 -0.000003 134.802307 -8.555340 -171.868271 -63.743099 -7.014418 3.441198 93.498825 -2.746162 -4.504940 21.454557 -0.003112 -0.000017 9.354113 0.361365 -1.093516 8.688064 0.803670 -2.156907 8.370178 0.790770 -2.161711 -23.439522 -11.809242 12.129964 -6.599747 7.418380 1.239603 -156.766983 -76.585854 -25.172848 -20.997421 53.919369 11.329638 -112.793709 -0.626407 3.354665 7.511220 -5.498446 40.840405 -168.946854 77.597946 12.718500 23.689987 -49.008125 -34.032749 -99.789040 0.744338 -2.838102 1.938259 15.483770 -19.384230 
-150.870087 0.000000 291.412170 180.000000 34.110893 180.000000 91.168282 -6.233995 83.501144 169.226395 -4.090032 171.073349 -88.419853 5.414795 -3.310262 77.569000 1.815036 -1.400071 21.454548 0.003094 -0.000003 138.885193 -9.452362 -172.230026 -66.322258 -7.196750 4.461778 98.006538 -3.035670 -2.338632 21.454559 -0.003111 -0.000017 9.610038 0.608908 -0.622318 9.201187 1.265275 -1.194305 8.883085 1.258182 -1.201924 -23.528587 -12.922251 11.818696 -6.954718 7.127810 0.315994 -158.914185 -76.145630 -22.985313 -18.150433 55.360081 12.517416 -108.274673 -1.097697 3.190074 7.910766 -6.295818 48.968185 -171.261185 76.125648 10.349428 16.317142 -50.035694 -26.436275 -98.781288 0.840836 -2.798795 2.127858 15.865709 -19.364876 
-147.215866 0.000000 285.863098 180.000000 34.188320 180.000000 90.809090 -6.620354 83.508865 160.671356 -5.546227 172.190384 -93.452957 5.221996 -4.573237 82.339828 2.891052 -0.526438 21.454540 0.003097 -0.000001 142.801331 -9.942611 -172.188492 -67.106384 -8.028868 5.023862 102.416763 -3.196645 -1.186984 21.454557 -0.003112 -0.000017 9.589697 0.782040 -0.177260 9.165400 1.575589 -0.292025 8.847178 1.573937 -0.301537 -24.899830 -13.795363 11.785664 -5.712160 6.906627 -0.345931 -160.368103 -74.976128 -21.513424 -14.172036 55.753780 14.551328 -104.966080 -1.522967 3.074802 8.531188 -6.656211 60.407459 -176.454391 74.507713 5.015786 9.099578 -49.812111 -18.336880 -98.552895 0.720336 -2.778639 2.411680 15.653644 -19.104811 
-143.556870 0.000000 280.315338 180.000000 34.213131 180.000000 91.218803 -7.440949 83.765770 151.260452 -5.535902 173.556732 -96.107620 4.863643 -5.485289 85.664413 3.494754 -0.569220 21.454538 0.003095 0.000002 146.958389 -9.527965 -172.423019 -66.767090 -8.766349 5.398909 106.416473 -3.316782 -0.381962 21.454557 -0.003112 -0.000017 9.419650 0.762566 0.188123 8.830060 1.508472 0.433886 8.511852 1.511202 0.424769 -26.393602 -14.534476 11.712529 -4.245559 6.861083 -1.036303 -160.297562 -73.558647 -21.604250 -8.817834 54.943802 17.593517 -103.759842 -1.670517 3.032821 10.174438 -6.067656 67.634056 178.107773 74.026802 -0.569377 3.879315 -50.250404 -11.987377 -99.618484 0.365012 -2.803771 2.000793 15.696411 -18.369860 
-139.884262 0.000000 274.780121 180.000000 34.188984 180.000000 92.225494 -8.047738 84.332603 142.411026 -4.352933 174.442413 -95.936699 4.547640 -6.155170 87.351875 3.657100 -2.228229 21.454548 0.003089 0.000003 151.801804 -8.179936 -173.265060 -65.595139 -8.921169 5.782373 109.394249 -3.526303 0.990643 21.454557 -0.003109 -0.000018 9.225765 0.538863 0.514006 8.443830 1.038736 1.065940 8.125738 1.045292 1.059649 -27.001608 -15.260926 11.237559 -3.619948 7.127823 -2.070377 -158.598923 -72.449783 -23.366655 -2.557534 52.999649 21.434088 -104.843964 -1.461772 3.066387 12.532821 -4.631535 66.233116 173.522919 75.305336 -5.231397 0.932464 -52.533440 -8.274493 -102.202065 -0.174260 -2.881793 0.580717 16.564327 -17.081022 
-136.189911 0.000000 269.246094 180.000000 34.121490 180.000000 92.939140 -8.516767 84.841698 134.765610 -3.356547 174.748917 -93.193100 4.269351 -6.529681 87.938690 3.617780 -4.040469 21.454552 0.003092 0.000002 157.441071 -6.953020 -173.751343 -63.097168 -9.128584 5.856919 110.686523 -3.594193 2.471468 21.454557 -0.003107 -0.000019 8.988852 0.297627 1.005780 7.969634 0.525334 2.029640 7.651746 0.537720 2.026435 -26.717907 -16.080931 10.248958 -3.340201 8.037698 -3.659978 -155.909241 -71.912964 -26.144854 3.406240 50.230785 25.816803 -107.040756 -1.149006 3.139790 13.231291 -3.857015 60.641796 171.708481 76.966576 -7.032265 -0.420672 -54.936840 -7.049907 -105.892418 -0.756113 -3.004344 -0.950551 17.747925 -15.429644 
-132.465790 0.000000 263.705292 180.000000 34.015709 180.000000 93.154556 -8.838791 85.231453 128.859650 -2.889511 174.720718 -88.072624 3.969265 -6.472833 88.016731 3.419311 -5.172103 21.454548 0.003101 0.000000 163.911743 -6.263928 -173.710068 -59.245899 -9.621559 5.435125 109.714676 -3.320192 3.662202 21.454557 -0.003107 -0.000019 8.701223 0.108900 1.670433 7.391260 0.111060 3.344360 7.073760 0.131390 3.343637 -25.663797 -17.050274 8.862345 -3.020231 9.499429 -5.699156 -152.746841 -71.973145 -29.398615 8.685074 47.069607 30.426458 -109.515335 -0.889070 3.229258 11.901156 -4.602198 55.113354 173.967667 78.204193 -4.691082 -0.362470 -56.269070 -8.235611 -110.136223 -1.270561 -3.154706 -2.216001 18.852228 -13.785276 
